<?xml version="1.0" encoding="UTF-8"?>
<svg id="Capa_2" data-name="Capa 2" xmlns="http://www.w3.org/2000/svg" viewBox="0 0 552.79 183.05">
  <g id="Capa_1-2" data-name="Capa 1">
    <g>
      <g>
        <g>
          <path d="m240.05,156.26v-21.87h-11.11v-2.77h25.01v2.77h-11.08v21.87h-2.81Z"/>
          <path d="m261.48,156.26v-24.65h22.82v2.77h-20.01v8.15h16.08v2.81h-16.08v8.15h20.01v2.77h-22.82Z"/>
          <path d="m297.04,156.26c-.76,0-1.46-.18-2.1-.55-.64-.36-1.14-.86-1.51-1.49-.37-.63-.56-1.32-.56-2.07v-16.43c0-.75.19-1.44.56-2.07.37-.63.87-1.12,1.51-1.49.64-.37,1.34-.55,2.1-.55h20.77v2.77h-20.77c-.37,0-.69.13-.95.39-.27.26-.4.58-.4.94v16.43c0,.37.13.68.4.94s.58.39.95.39h20.77v2.77h-20.77Z"/>
          <path d="m326.32,156.26v-24.65h2.81v10.92h19.97v-10.92h2.85v24.65h-2.85v-10.92h-19.97v10.92h-2.81Z"/>
          <path d="m360.71,156.26v-24.65h3.86l18.34,21.5v-21.5h2.81v24.65h-3.86l-18.34-21.5v21.5h-2.81Z"/>
          <path d="m398.56,156.26c-.76,0-1.46-.18-2.1-.55-.64-.36-1.14-.86-1.51-1.49-.37-.63-.56-1.32-.56-2.07v-16.43c0-.75.19-1.44.56-2.07.37-.63.87-1.12,1.51-1.49.64-.37,1.34-.55,2.1-.55h16.67c.76,0,1.46.18,2.1.55s1.14.86,1.51,1.49c.37.63.56,1.32.56,2.07v16.43c0,.75-.19,1.44-.56,2.07-.37.63-.87,1.12-1.51,1.49-.64.37-1.34.55-2.1.55h-16.67Zm0-2.77h16.67c.37,0,.69-.13.96-.39.27-.26.4-.58.4-.94v-16.43c0-.37-.13-.68-.4-.94s-.58-.39-.96-.39h-16.67c-.37,0-.69.13-.96.39s-.4.58-.4.94v16.43c0,.37.13.68.4.94.27.26.58.39.96.39Z"/>
          <path d="m428.12,156.26v-24.68h2.81v21.91h22.19v2.77h-25.01Z"/>
          <path d="m464.1,156.26c-.76,0-1.46-.18-2.1-.55-.64-.36-1.14-.86-1.51-1.49-.37-.63-.56-1.32-.56-2.07v-16.43c0-.75.19-1.44.56-2.07.37-.63.87-1.12,1.51-1.49.64-.37,1.34-.55,2.1-.55h16.67c.76,0,1.46.18,2.1.55s1.14.86,1.51,1.49c.37.63.56,1.32.56,2.07v16.43c0,.75-.19,1.44-.56,2.07-.37.63-.87,1.12-1.51,1.49-.64.37-1.34.55-2.1.55h-16.67Zm0-2.77h16.67c.37,0,.69-.13.96-.39.27-.26.4-.58.4-.94v-16.43c0-.37-.13-.68-.4-.94s-.58-.39-.96-.39h-16.67c-.37,0-.69.13-.96.39s-.4.58-.4.94v16.43c0,.37.13.68.4.94.27.26.58.39.96.39Z"/>
          <path d="m497.79,156.26c-.76,0-1.46-.18-2.1-.55-.64-.36-1.14-.86-1.51-1.49-.37-.63-.56-1.32-.56-2.07v-16.43c0-.75.19-1.44.56-2.07.37-.63.87-1.12,1.51-1.49.64-.37,1.34-.55,2.1-.55h16.67c.76,0,1.46.18,2.1.55s1.14.86,1.51,1.49.56,1.32.56,2.07v.99h-2.81v-.99c0-.37-.13-.68-.4-.94s-.58-.39-.96-.39h-16.67c-.37,0-.69.13-.95.39-.27.26-.4.58-.4.94v16.43c0,.37.13.68.4.94s.58.39.95.39h16.67c.37,0,.69-.13.96-.39.27-.26.4-.58.4-.94v-6.09h-6.18v-2.81h9v8.9c0,.75-.19,1.44-.56,2.07-.37.63-.87,1.12-1.51,1.49-.64.37-1.34.55-2.1.55h-16.67Z"/>
          <path d="m537.98,156.26v-9.28l-11.5-15.37h3.23l9.69,12.05,9.59-12.05h3.3l-11.5,15.37v9.28h-2.81Z"/>
        </g>
        <g>
          <path d="m228.98,105.47V27.45h16.58l45.62,54.4V27.45h15.82v78.03h-16.58l-45.84-54.62v54.62h-15.61Z"/>
          <path d="m349.7,105.47c-2.89,0-5.51-.7-7.86-2.11-2.35-1.41-4.23-3.29-5.64-5.63-1.41-2.35-2.11-4.97-2.11-7.86v-46.82c0-2.89.71-5.51,2.11-7.86,1.41-2.35,3.29-4.23,5.64-5.64,2.35-1.41,4.97-2.11,7.86-2.11h46.82c2.82,0,5.4.71,7.75,2.11,2.35,1.41,4.24,3.29,5.69,5.64,1.44,2.35,2.17,4.97,2.17,7.86v46.82c0,2.89-.72,5.51-2.17,7.86-1.45,2.35-3.34,4.23-5.69,5.63-2.35,1.41-4.93,2.11-7.75,2.11h-46.82Zm.65-15.71h45.3c.22,0,.38-.05.49-.16s.16-.27.16-.49v-45.3c0-.22-.05-.38-.16-.49s-.27-.16-.49-.16h-45.3c-.22,0-.38.05-.49.16s-.16.27-.16.49v45.3c0,.22.05.38.16.49s.27.16.49.16Z"/>
          <path d="m461.65,105.47l-28.39-78.03h16.58l17.88,48.88,17.88-48.88h14.74l17.99,48.88,17.88-48.88h16.58l-28.39,78.03h-12.14l-19.29-52.67-19.18,52.67h-12.14Z"/>
        </g>
      </g>
      <g>
        <path d="m106.17,120.86h-35.59c-5.85,0-10.61-4.76-10.61-10.61v-37.01c0-5.85,4.76-10.61,10.61-10.61h35.59c5.85,0,10.61,4.76,10.61,10.61v37.01c0,5.85-4.76,10.61-10.61,10.61Zm-35.59-49.19c-.86,0-1.57.7-1.57,1.57v37.01c0,.86.7,1.57,1.57,1.57h35.59c.86,0,1.57-.7,1.57-1.57v-37.01c0-.86-.7-1.57-1.57-1.57h-35.59Z"/>
        <g>
          <g>
            <g>
              <g>
                <path d="m59.45,183.05c-1.07,0-2.15-.15-3.23-.45-3.06-.86-5.61-2.87-7.16-5.65-1.56-2.78-1.94-5.99-1.07-9.06s2.87-5.61,5.65-7.16c2.78-1.56,6-1.93,9.06-1.07,3.06.86,5.61,2.87,7.16,5.65s1.94,5.99,1.07,9.06c-1.48,5.25-6.27,8.68-11.47,8.68Zm0-15.38c-.58,0-1.16.15-1.68.44-.81.45-1.39,1.19-1.64,2.08-.25.89-.14,1.82.31,2.63.45.81,1.19,1.39,2.08,1.64.89.25,1.82.14,2.63-.31s1.39-1.19,1.64-2.08c.52-1.83-.55-3.75-2.39-4.26-.31-.09-.63-.13-.94-.13Z"/>
                <polygon points="52.81 164.95 48.79 149.38 66.5 129.59 72.8 135.23 58.11 151.65 61.01 162.83 52.81 164.95"/>
              </g>
              <g>
                <path d="m15.94,182.86c-7.26,0-13.16-5.9-13.16-13.16s5.9-13.16,13.16-13.16,13.16,5.9,13.16,13.16-5.9,13.16-13.16,13.16Zm0-17.86c-2.59,0-4.7,2.11-4.7,4.7s2.11,4.7,4.7,4.7,4.7-2.11,4.7-4.7-2.11-4.7-4.7-4.7Z"/>
                <path d="m11.92,138.11c-1.74,0-3.47-.39-5.09-1.15-2.88-1.36-5.05-3.76-6.12-6.76s-.91-6.23.45-9.11c1.36-2.88,3.76-5.05,6.76-6.12s6.23-.91,9.11.45c2.88,1.36,5.05,3.76,6.12,6.76s.91,6.23-.45,9.11c-1.36,2.88-3.76,5.05-6.76,6.12-1.31.47-2.67.7-4.02.7Zm0-15.38c-.39,0-.79.07-1.17.2-.87.31-1.57.94-1.96,1.78-.4.83-.44,1.77-.13,2.64s.94,1.57,1.78,1.96c.83.4,1.77.44,2.64.13.87-.31,1.57-.94,1.96-1.78.4-.83.44-1.77.13-2.64s-.94-1.57-1.78-1.96c-.47-.22-.97-.33-1.48-.33Z"/>
                <rect x="12.31" y="142.82" width="49.68" height="8.46" transform="translate(-95.59 73.67) rotate(-46.89)"/>
                <polygon points="34.36 135.34 18.55 132.38 20.11 124.07 31.46 126.19 46.84 110.41 52.9 116.32 34.36 135.34"/>
              </g>
            </g>
            <g>
              <g>
                <path d="m117.84,25.24c-1.07,0-2.15-.15-3.23-.45-3.06-.86-5.61-2.87-7.16-5.65-1.55-2.78-1.94-5.99-1.07-9.06.86-3.06,2.87-5.61,5.65-7.16,2.78-1.56,5.99-1.94,9.06-1.07h0c6.32,1.78,10.02,8.38,8.23,14.7-1.48,5.25-6.27,8.68-11.47,8.68Zm0-15.37c-.58,0-1.16.15-1.68.44-.81.45-1.39,1.19-1.64,2.08-.25.89-.14,1.82.31,2.63s1.19,1.39,2.08,1.64c.89.25,1.82.14,2.63-.31.81-.45,1.39-1.19,1.64-2.08.52-1.83-.55-3.75-2.39-4.26-.31-.09-.63-.13-.94-.13Z"/>
                <polygon points="110.79 54.87 104.49 49.23 119.18 32.81 116.29 21.63 124.48 19.51 128.5 35.08 110.79 54.87"/>
              </g>
              <g>
                <path d="m163.09,26.34c-1.92,0-3.83-.43-5.62-1.27-3.18-1.5-5.58-4.16-6.76-7.47-1.18-3.31-1.01-6.88.5-10.06s4.16-5.58,7.47-6.76c3.31-1.18,6.88-1.01,10.06.5,3.18,1.5,5.58,4.16,6.76,7.47,2.44,6.83-1.13,14.38-7.96,16.82-1.45.52-2.95.78-4.44.78Zm.01-17.87c-.53,0-1.07.09-1.59.28-1.18.42-2.13,1.28-2.67,2.42-.54,1.14-.6,2.41-.18,3.59.42,1.18,1.28,2.13,2.42,2.67,1.14.54,2.41.6,3.59.18,2.44-.87,3.72-3.57,2.84-6.01-.42-1.18-1.28-2.13-2.42-2.67-.64-.3-1.32-.45-2.01-.45Z"/>
                <path d="m165.36,70.19c-1.74,0-3.47-.39-5.09-1.15-2.88-1.36-5.05-3.76-6.12-6.76s-.91-6.23.45-9.11c1.36-2.88,3.76-5.05,6.76-6.12,3-1.07,6.23-.91,9.11.45,2.88,1.36,5.05,3.76,6.12,6.76,2.21,6.19-1.02,13.02-7.21,15.23-1.31.47-2.67.7-4.02.7Zm.01-15.38c-.39,0-.79.07-1.17.2-.87.31-1.57.94-1.96,1.78-.4.83-.44,1.77-.13,2.64.64,1.79,2.62,2.73,4.42,2.09.87-.31,1.57-.94,1.96-1.78.4-.83.44-1.77.13-2.64s-.94-1.56-1.78-1.96c-.47-.22-.97-.33-1.48-.33Z"/>
                <rect x="115.31" y="33.18" width="49.68" height="8.46" transform="translate(17.06 114.15) rotate(-46.89)"/>
                <polygon points="130.45 74.04 124.39 68.14 142.93 49.12 158.74 52.07 157.18 60.39 145.83 58.27 130.45 74.04"/>
              </g>
            </g>
            <g>
              <polygon points="165.07 182.14 120.32 131.3 126.67 125.71 168.32 173.02 168.18 105.41 176.64 105.4 176.79 182.07 165.07 182.14"/>
              <polygon points=".15 78.31 0 1.63 11.72 1.57 56.47 52.4 50.12 57.99 8.48 10.69 8.61 78.29 .15 78.31"/>
            </g>
          </g>
          <path d="m118.12,137.09h-59.5c-7.95,0-14.41-6.46-14.41-14.41v-61.88c0-7.94,6.46-14.41,14.41-14.41h59.5c7.95,0,14.41,6.46,14.41,14.41v61.88c0,7.95-6.46,14.41-14.41,14.41ZM58.62,54.85c-3.28,0-5.95,2.67-5.95,5.95v61.88c0,3.28,2.67,5.95,5.95,5.95h59.5c3.28,0,5.95-2.67,5.95-5.95v-61.88c0-3.28-2.67-5.95-5.95-5.95h-59.5Z"/>
        </g>
      </g>
    </g>
  </g>
</svg>